<svg width="20" height="20" viewBox="0 0 20 20" fill="none" xmlns="http://www.w3.org/2000/svg">
<path d="M11.3099 18.4002C9.98761 18.6067 8.63523 18.4981 7.36284 18.0832C6.09044 17.6683 4.93401 16.9588 3.98766 16.0124C3.04132 15.0661 2.33181 13.9096 1.91689 12.6372C1.50197 11.3648 1.39336 10.0125 1.59991 8.69016C1.07865 7.69867 0.888169 6.56644 1.05632 5.45897C1.22448 4.3515 1.74244 3.32684 2.53452 2.53477C3.3266 1.74269 4.35125 1.22472 5.45873 1.05657C6.5662 0.888413 7.69842 1.07889 8.68991 1.60016C10.0122 1.39361 11.3646 1.50221 12.637 1.91713C13.9094 2.33205 15.0658 3.04156 16.0122 3.98791C16.9585 4.93425 17.668 6.09069 18.0829 7.36308C18.4979 8.63547 18.6065 9.98786 18.3999 11.3102C18.9212 12.3016 19.1117 13.4339 18.9435 14.5413C18.7754 15.6488 18.2574 16.6735 17.4653 17.4655C16.6732 18.2576 15.6486 18.7756 14.5411 18.9437C13.4336 19.1119 12.3014 18.9214 11.3099 18.4002ZM10.0519 15.1562H10.0119C12.8839 15.1562 14.3149 13.7702 14.3149 11.9132C14.3149 10.7152 13.7639 9.44216 11.5889 8.95516L9.60591 8.51516C8.85091 8.34316 7.98391 8.11516 7.98391 7.40016C7.98391 6.68516 8.60391 6.18716 9.70791 6.18716C11.9379 6.18716 11.7349 7.71516 12.8389 7.71516C13.4149 7.71516 13.9319 7.37316 13.9319 6.78516C13.9319 5.41516 11.7349 4.38516 9.87591 4.38516C7.85491 4.38516 5.70291 5.24416 5.70291 7.52916C5.70291 8.62716 6.09691 9.79916 8.26291 10.3422L10.9519 11.0132C11.7679 11.2152 11.9699 11.6722 11.9699 12.0852C11.9699 12.7722 11.2859 13.4432 10.0519 13.4432C7.63491 13.4432 7.97391 11.5862 6.67791 11.5862C6.09791 11.5862 5.67491 11.9842 5.67491 12.5572C5.67491 13.6712 7.02691 15.1552 10.0519 15.1552V15.1562Z" fill="#373737"/>
</svg>
