<svg width="74" height="74" viewBox="0 0 74 74" fill="none" xmlns="http://www.w3.org/2000/svg">
<path d="M3.25 17H70.75C71.413 17 72.0489 17.2634 72.5178 17.7322C72.9866 18.2011 73.25 18.837 73.25 19.5V57H0.75V19.5C0.75 18.837 1.01339 18.2011 1.48223 17.7322C1.95107 17.2634 2.58696 17 3.25 17Z" fill="#3780EA"/>
<path d="M5.75 32H38.25V52H5.75V32Z" fill="#896FF7"/>
<path d="M49.5 68.25V73.25H24.5V68.25H33.25H40.75H49.5Z" fill="#E8E5FB"/>
<path d="M33.25 60.75H40.75V68.25H33.25V60.75Z" fill="#8E95A3"/>
<path d="M73.25 58.25V59.5C73.248 60.1624 72.984 60.7972 72.5156 61.2656C72.0472 61.734 71.4124 61.998 70.75 62H3.25C2.58757 61.998 1.95283 61.734 1.48442 61.2656C1.01601 60.7972 0.751978 60.1624 0.75 59.5V57H73.25V58.25Z" fill="#E8E5FB"/>
<path d="M7 4.5H32V24.5H7V4.5Z" fill="#78B9EB"/>
<path d="M38.25 32L22 42L5.75 32H38.25Z" fill="#B9B1F1"/>
<path d="M42 5.75H50.75V15.75H42V5.75Z" fill="#E8E5FB"/>
<path d="M48.25 15.75L47 24.5H43.25V15.75H48.25Z" fill="#C7BEC5"/>
<path d="M71.2625 8.98747C71.4975 9.21666 71.6839 9.49085 71.8106 9.79366C71.9373 10.0965 72.0017 10.4217 72 10.75C71.998 11.4124 71.734 12.0471 71.2656 12.5156C70.7972 12.984 70.1624 13.248 69.5 13.25H67V8.24997H69.5C69.8283 8.24823 70.1535 8.31263 70.4563 8.43934C70.7591 8.56605 71.0333 8.75247 71.2625 8.98747Z" fill="#EC455A"/>
<path d="M67 0.75V20.75L50.75 15.75V5.75L67 0.75Z" fill="#F6CC4F"/>
<path d="M38.25 8.25H42V13.25H38.25V8.25Z" fill="#EC455A"/>
<path d="M43.25 29.5H65.75V44.5H43.25V29.5Z" fill="#9E2849"/>
<path d="M68.25 34.5V49.5H47V44.5V34.5H65.75H68.25Z" fill="#EC455A"/>
<path d="M50.75 38.25H53.25V40.75H50.75V38.25Z" fill="#E8E5FB"/>
<path d="M55.75 38.25H64.5V40.75H55.75V38.25Z" fill="#E8E5FB"/>
<path d="M50.75 43.25H55.75V45.75H50.75V43.25Z" fill="#E8E5FB"/>
<path d="M58.25 43.25H64.5V45.75H58.25V43.25Z" fill="#E8E5FB"/>
<path d="M33.25 62H40.75V64.5H33.25V62Z" fill="#636263"/>
<path d="M24.5 14.5L15.75 19.5V9.5L24.5 14.5Z" fill="#EC455A"/>
</svg>
