<svg width="80" height="78" viewBox="0 0 80 78" fill="none" xmlns="http://www.w3.org/2000/svg">
<path d="M71.4688 58.5574H4.02422C1.80172 58.5574 0 56.7557 0 54.5332V4.63378C0 2.41128 1.80172 0.609558 4.02422 0.609558H71.4688C73.6912 0.609558 75.493 2.41128 75.493 4.63378V54.5332C75.493 56.7557 73.6912 58.5574 71.4688 58.5574Z" fill="#736572"/>
<path d="M80.0004 4.63378V54.5332C80.0004 56.7561 78.1991 58.5574 75.9762 58.5574H71.1473C73.3702 58.5574 75.1715 56.7561 75.1715 54.5332V52.9235L68.3479 34.4263L75.1715 6.24347V4.63378C75.1715 2.41081 73.3702 0.609558 71.1473 0.609558H75.9762C78.1991 0.609714 80.0004 2.41096 80.0004 4.63378Z" fill="#615260"/>
<path d="M74.3667 53.7285H5.63419C5.18966 53.7285 4.82935 53.3682 4.82935 52.9236V15.9014L45.2917 10.67L75.1714 15.9014V52.9236C75.1715 53.368 74.8111 53.7285 74.3667 53.7285Z" fill="white"/>
<path d="M65.5133 31.5152H52.636L48.7856 29.1007L52.636 26.6862H65.5133C66.8467 26.6862 67.9278 27.7671 67.9278 29.1007C67.9277 30.4341 66.8467 31.5152 65.5133 31.5152Z" fill="#FCF1F2"/>
<path d="M52.6355 31.5152H14.4866C13.1531 31.5152 12.072 30.4343 12.072 29.1007C12.072 27.7673 13.153 26.6862 14.4866 26.6862H52.6355V31.5152Z" fill="#BAF39A"/>
<path d="M68.8645 10.8413L64.7086 15.9014H4.82935V6.24344C4.82935 5.79891 5.18966 5.4386 5.63419 5.4386H64.7086L68.8645 10.8413Z" fill="#FFE077"/>
<path d="M23.7423 12.2797C22.8548 12.2797 22.1326 11.5575 22.1326 10.67C22.1326 9.78249 22.8548 9.0603 23.7423 9.0603C24.6298 9.0603 25.3519 9.78249 25.3519 10.67C25.3519 11.5575 24.6298 12.2797 23.7423 12.2797Z" fill="#FFC263"/>
<path d="M18.1082 12.2797C17.2207 12.2797 16.4985 11.5575 16.4985 10.67C16.4985 9.78249 17.2207 9.0603 18.1082 9.0603C18.9957 9.0603 19.7179 9.78249 19.7179 10.67C19.7179 11.5575 18.9957 12.2797 18.1082 12.2797Z" fill="#FFC263"/>
<path d="M12.4747 12.2797C11.5872 12.2797 10.865 11.5575 10.865 10.67C10.865 9.78249 11.5872 9.0603 12.4747 9.0603C13.3622 9.0603 14.0844 9.78249 14.0844 10.67C14.0844 11.5575 13.3622 12.2797 12.4747 12.2797Z" fill="#FFC263"/>
<path d="M64.7083 5.4386H74.3662C74.8107 5.4386 75.1711 5.79891 75.1711 6.24344V15.9014H64.7083V5.4386Z" fill="#FFC263"/>
<path d="M40.0001 50.7505C39.3333 50.7505 38.793 50.21 38.793 49.5433V43.7485C38.793 43.0816 39.3334 42.5413 40.0001 42.5413C40.6669 42.5413 41.2073 43.0817 41.2073 43.7485V49.5433C41.2073 50.21 40.667 50.7505 40.0001 50.7505Z" fill="#FCF1F2"/>
<path d="M46.5194 47.2897V46.3239C46.5194 43.375 48.5018 40.8892 51.2066 40.1264C51.7635 39.9694 54.5097 41.3017 55.583 43.5295L62.3174 57.5084C63.9972 60.9953 64.8694 64.8159 64.8694 68.6863V70.9517C64.8694 74.5077 61.9868 77.3903 58.4308 77.3903H58.7527C55.1968 77.3903 52.3141 74.5077 52.3141 70.9517C52.3141 69.4094 51.9916 67.8839 51.3672 66.4736L50.849 65.3027C50.3333 64.1377 49.1791 63.3864 47.9052 63.3864H32.0955C30.8216 63.3864 29.6674 64.1377 29.1518 65.3027L28.6335 66.4736C28.0091 67.8841 27.6866 69.4094 27.6866 70.9517C27.6866 74.5077 24.804 77.3903 21.248 77.3903H17.0629C13.5069 77.3903 10.6243 74.5077 10.6243 70.9517V68.6863C10.6243 64.8159 11.4966 60.9953 13.1765 57.5084L19.9108 43.5295C20.9841 41.3017 23.2385 39.8853 25.7115 39.8853H27.0429C30.5988 39.8853 33.4815 42.768 33.4815 46.3239V47.2897C33.4815 48.1788 34.2021 48.8994 35.0911 48.8994H44.9101C45.7988 48.8994 46.5194 48.1788 46.5194 47.2897Z" fill="#BCF1F8"/>
<path d="M69.3757 68.6869V70.9518C69.3757 74.5075 66.4929 77.3904 62.9372 77.3904H58.752C58.6473 77.3904 58.5428 77.3871 58.4398 77.3822C61.8411 77.21 64.5468 74.3963 64.5468 70.9516V68.6868C64.5468 64.8155 63.6743 60.9958 61.9956 57.5077L55.2607 43.5294C54.4479 41.8425 52.9573 40.6208 51.2061 40.1266C51.7631 39.9688 52.3506 39.8852 52.9573 39.8852H54.2886C56.7611 39.8852 59.0161 41.3018 60.0898 43.5294L66.8247 57.5077C68.5034 60.996 69.3757 64.8157 69.3757 68.6869Z" fill="#91F2F2"/>
<path d="M24.7078 60.167C22.4853 60.167 20.6836 58.3653 20.6836 56.143C20.6836 53.9205 22.4853 52.1188 24.7078 52.1188C26.9303 52.1188 28.732 53.9205 28.732 56.143C28.7319 58.3653 26.9303 60.167 24.7078 60.167Z" fill="white"/>
<path d="M59.3154 54.9357H56.4985V52.1188C56.4985 51.4519 55.958 50.9116 55.2913 50.9116C54.6244 50.9116 54.0841 51.4521 54.0841 52.1188V54.9357H51.2672C50.6004 54.9357 50.0601 55.4761 50.0601 56.1429C50.0601 56.8096 50.6005 57.3501 51.2672 57.3501H54.0841V60.1669C54.0841 60.8338 54.6246 61.3741 55.2913 61.3741C55.9582 61.3741 56.4985 60.8336 56.4985 60.1669V57.3501H59.3154C59.9823 57.3501 60.5226 56.8096 60.5226 56.1429C60.5226 55.4761 59.9821 54.9357 59.3154 54.9357Z" fill="white"/>
<path d="M45.6336 59.7645H42.4142C41.7473 59.7645 41.207 59.2241 41.207 58.5573C41.207 57.8906 41.7475 57.3502 42.4142 57.3502H45.6336C46.3005 57.3502 46.8408 57.8906 46.8408 58.5573C46.8408 59.2241 46.3005 59.7645 45.6336 59.7645Z" fill="#7DE8F9"/>
<path d="M37.5855 59.7645H34.3661C33.6992 59.7645 33.1589 59.2241 33.1589 58.5573C33.1589 57.8906 33.6994 57.3502 34.3661 57.3502H37.5855C38.2524 57.3502 38.7927 57.8906 38.7927 58.5573C38.7927 59.2241 38.2524 59.7645 37.5855 59.7645Z" fill="#7DE8F9"/>
<path d="M39.9995 45.1167C38.4437 45.1167 37.1826 43.8556 37.1826 42.2998C37.1826 40.7441 38.4437 39.483 39.9995 39.483C41.5553 39.483 42.8164 40.7441 42.8164 42.2998C42.8164 43.8555 41.5553 45.1167 39.9995 45.1167Z" fill="#CBB0F2"/>
</svg>
