<svg width="158" height="38" viewBox="0 0 158 38" fill="none" xmlns="http://www.w3.org/2000/svg">
<path d="M10.3195 3.2204C14.3557 3.2204 17.4805 4.34012 19.6939 6.57956C21.9073 8.819 23.014 11.9959 23.014 16.1102C23.014 20.2245 21.9073 23.4014 19.6939 25.6408C17.4805 27.8803 14.3557 29 10.3195 29H0.35916V3.2204H10.3195ZM10.046 24.7034C12.4938 24.7034 14.3296 23.9743 15.5535 22.516C16.8034 21.0318 17.4284 18.8965 17.4284 16.1102C17.4284 13.3239 16.8034 11.2017 15.5535 9.74342C14.3296 8.25914 12.4938 7.517 10.046 7.517H5.74944V24.7034H10.046ZM30.4674 6.65768C28.254 6.65768 27.1473 5.70722 27.1473 3.8063C27.1473 1.87934 28.254 0.915857 30.4674 0.915857C32.6808 0.915857 33.7875 1.87934 33.7875 3.8063C33.7875 5.70722 32.6808 6.65768 30.4674 6.65768ZM33.1235 9.47V29H27.7723V9.47H33.1235ZM50.3969 25.3284C52.5061 25.3284 54.1336 25.7841 55.2794 26.6955C56.4251 27.6069 56.998 28.8828 56.998 30.5233C56.998 32.0337 56.5683 33.2966 55.709 34.3122C54.8497 35.3277 53.6388 36.0959 52.0764 36.6167C50.5401 37.1375 48.7563 37.3979 46.7252 37.3979C43.3661 37.3979 40.9053 36.9292 39.3429 35.9917C37.8065 35.0543 37.0383 33.8304 37.0383 32.3201C37.0383 31.4347 37.3118 30.6535 37.8586 29.9765C38.4315 29.3255 39.3429 28.8698 40.5928 28.6094C38.8481 27.9584 37.9758 26.7345 37.9758 24.9378C37.9758 24.0524 38.2362 23.2712 38.757 22.5942C39.3038 21.9171 40.046 21.4093 40.9834 21.0708C38.9262 19.9251 37.8977 18.1413 37.8977 15.7196C37.8977 13.6624 38.6919 12.048 40.2803 10.8762C41.8688 9.67832 44.0431 9.0794 46.8033 9.0794C48.3657 9.0794 49.7719 9.28772 51.0218 9.70436C51.2041 8.35028 51.7509 7.20452 52.6623 6.26708C53.5737 5.3036 54.8106 4.82186 56.373 4.82186C56.4251 4.82186 56.4902 4.82186 56.5683 4.82186C56.6465 4.82186 56.7246 4.82186 56.8027 4.82186L57.4277 8.64974C57.2193 8.6237 56.985 8.61068 56.7246 8.61068C55.7351 8.61068 54.9408 8.80598 54.3419 9.19658C53.743 9.56114 53.3654 10.095 53.2092 10.798C54.8757 11.9698 55.709 13.6104 55.709 15.7196C55.709 17.7507 54.9018 19.3652 53.2873 20.563C51.6989 21.7348 49.5375 22.3207 46.8033 22.3207C45.6055 22.3207 44.5118 22.2166 43.5223 22.0083C42.9234 22.1645 42.4937 22.3989 42.2333 22.7113C41.999 22.9978 41.8818 23.3233 41.8818 23.6878C41.8818 24.7815 42.7151 25.3284 44.3816 25.3284H50.3969ZM46.8033 12.4386C45.7617 12.4386 44.9024 12.725 44.2254 13.2979C43.5483 13.8708 43.2098 14.665 43.2098 15.6805C43.2098 16.6961 43.5483 17.5033 44.2254 18.1023C44.9024 18.6751 45.7617 18.9616 46.8033 18.9616C47.8189 18.9616 48.6652 18.6751 49.3422 18.1023C50.0193 17.5033 50.3578 16.6961 50.3578 15.6805C50.3578 14.665 50.0193 13.8708 49.3422 13.2979C48.6652 12.725 47.8189 12.4386 46.8033 12.4386ZM46.7643 33.7263C48.7694 33.7263 50.2536 33.4789 51.2171 32.9841C52.2066 32.5154 52.7014 31.9425 52.7014 31.2655C52.7014 30.7707 52.5061 30.3671 52.1155 30.0546C51.7249 29.7682 51.0218 29.625 50.0063 29.625H43.4051C42.7802 29.625 42.2594 29.7812 41.8427 30.0937C41.4521 30.4322 41.2568 30.8619 41.2568 31.3827C41.2568 32.1118 41.7386 32.6847 42.702 33.1013C43.6916 33.5179 45.0456 33.7263 46.7643 33.7263ZM62.9284 6.65768C60.715 6.65768 59.6083 5.70722 59.6083 3.8063C59.6083 1.87934 60.715 0.915857 62.9284 0.915857C65.1418 0.915857 66.2485 1.87934 66.2485 3.8063C66.2485 5.70722 65.1418 6.65768 62.9284 6.65768ZM65.5845 9.47V29H60.2333V9.47H65.5845Z" fill="#FF5300"/>
<path d="M80.319 29.3906C77.2462 29.3906 74.7855 28.5052 72.9366 26.7345C71.0878 24.9378 70.1633 22.4379 70.1633 19.235C70.1633 17.0997 70.58 15.2769 71.4133 13.7666C72.2466 12.2563 73.4053 11.0975 74.8896 10.2903C76.3999 9.48302 78.1186 9.0794 80.0455 9.0794C82.0246 9.0794 83.7042 9.48302 85.0843 10.2903C86.4644 11.0715 87.519 12.1521 88.2481 13.5322C88.9773 14.8863 89.3418 16.4357 89.3418 18.1804C89.3418 18.7012 89.3288 19.1959 89.3028 19.6647C89.2767 20.1334 89.2377 20.55 89.1856 20.9146H75.3974C75.6057 22.4249 76.1265 23.5576 76.9598 24.3128C77.8191 25.0419 78.9258 25.4065 80.2799 25.4065C81.4257 25.4065 82.3501 25.1851 83.0532 24.7425C83.7562 24.2998 84.3031 23.6878 84.6937 22.9066L88.9512 24.5472C88.3263 26.0835 87.2326 27.2814 85.6702 28.1407C84.1078 28.974 82.324 29.3906 80.319 29.3906ZM80.0065 13.0245C77.4806 13.0245 75.9573 14.4176 75.4365 17.2039H84.225C84.0687 15.8498 83.626 14.8212 82.8969 14.1181C82.1938 13.389 81.2304 13.0245 80.0065 13.0245ZM93.8767 29V9.47H98.6811L98.8764 13.1416C99.4753 11.7876 100.348 10.772 101.493 10.095C102.665 9.41792 104.006 9.0794 105.517 9.0794C107.548 9.0794 109.227 9.67832 110.555 10.8762C111.883 12.048 112.547 13.8187 112.547 16.1883V29H107.196V17.7117C107.196 16.0451 106.858 14.8993 106.181 14.2744C105.53 13.6234 104.696 13.2979 103.681 13.2979C102.952 13.2979 102.236 13.4802 101.532 13.8447C100.855 14.1832 100.296 14.7431 99.8529 15.5243C99.4363 16.3055 99.228 17.3471 99.228 18.6491V29H93.8767ZM126.927 9.0794C129.531 9.0794 131.549 9.63926 132.981 10.759C134.44 11.8787 135.403 13.2328 135.872 14.8212L130.872 16.618C130.351 14.2483 129.062 13.0635 127.005 13.0635C125.521 13.0635 124.362 13.5843 123.529 14.6259C122.722 15.6675 122.318 17.2169 122.318 19.2741C122.318 21.3573 122.735 22.9066 123.568 23.9222C124.427 24.9117 125.586 25.4065 127.044 25.4065C129.31 25.4065 130.664 24.2477 131.106 21.9301L135.95 23.4925C135.507 25.2372 134.518 26.6564 132.981 27.7501C131.471 28.8438 129.505 29.3906 127.083 29.3906C125.052 29.3906 123.268 28.987 121.732 28.1797C120.222 27.3725 119.05 26.2137 118.217 24.7034C117.383 23.1931 116.967 21.3703 116.967 19.235C116.967 17.0997 117.383 15.2769 118.217 13.7666C119.076 12.2563 120.248 11.0975 121.732 10.2903C123.242 9.48302 124.974 9.0794 126.927 9.0794ZM157.97 9.47L150.08 30.2109C149.455 31.9816 148.752 33.3877 147.971 34.4293C147.216 35.497 146.33 36.2521 145.315 36.6948C144.325 37.1635 143.14 37.3979 141.76 37.3979C140.745 37.3979 139.807 37.2807 138.948 37.0464C138.115 36.812 137.386 36.4865 136.761 36.0699L137.893 32.2029C138.805 32.932 139.951 33.2966 141.331 33.2966C142.086 33.2966 142.724 33.1404 143.245 32.8279C143.765 32.5154 144.208 31.8904 144.573 30.953L145.237 29.2734L143.088 24.1956L137.112 9.47H143.049L146.76 21.188L147.776 25.094L148.986 20.9536L152.541 9.47H157.97Z" fill="#373737"/>
</svg>
